<svg width="130" height="24" viewBox="0 0 130 24" fill="none" xmlns="http://www.w3.org/2000/svg">
<g clip-path="url(#clip0_4956_10153)">
<path fill-rule="evenodd" clip-rule="evenodd" d="M13.1728 5.20802C13.1742 5.20571 13.1771 5.20492 13.1794 5.20626L13.6931 5.50283L6.38518 9.71045C6.28525 9.76799 6.22422 9.87505 6.22563 9.99036L6.25654 12.5097C6.25953 12.7531 6.52343 12.9034 6.73425 12.7816L16.5173 7.13339L20.6945 9.54511C20.9069 9.66769 21.1723 9.51446 21.1723 9.26929V6.10849C21.1723 5.99471 21.1116 5.88957 21.013 5.83267L11.0309 0.0694914C10.9324 0.012598 10.811 0.012598 10.7124 0.0694914L0.73029 5.83267C0.631749 5.88956 0.571046 5.99471 0.571046 6.10849V10.4803C0.571046 10.5941 0.631749 10.6992 0.73029 10.7561L3.47727 12.3421C3.6896 12.4647 3.95501 12.3114 3.95501 12.0663V8.06222C3.95501 7.94844 4.01571 7.8433 4.11425 7.7864L10.7124 3.97695C10.811 3.92006 10.9324 3.92006 11.0309 3.97695L13.1662 5.20979C13.1685 5.21112 13.1715 5.21033 13.1728 5.20802ZM9.26252 18.9293C9.26063 18.9282 9.25822 18.9289 9.25713 18.9307C9.25604 18.9326 9.25363 18.9333 9.25175 18.9322L8.0457 18.2359L15.4116 13.9778C15.5101 13.9209 15.5707 13.8158 15.5707 13.7021V11.189C15.5707 10.9438 15.3053 10.7906 15.093 10.9132L5.22768 16.6089L1.04878 14.1962C0.836452 14.0736 0.571046 14.2268 0.571045 14.472V17.6349C0.571045 17.7486 0.631749 17.8538 0.730289 17.9107L10.7124 23.6739C10.811 23.7307 10.9324 23.7307 11.0309 23.6739L21.013 17.9107C21.1116 17.8538 21.1723 17.7486 21.1723 17.6349L21.1723 13.261C21.1723 13.1472 21.1116 13.0421 21.013 12.9852L18.266 11.3992C18.0537 11.2766 17.7883 11.4299 17.7883 11.6751V15.6811C17.7883 15.7949 17.7276 15.9001 17.6291 15.9569L11.0309 19.7664C10.9324 19.8233 10.811 19.8233 10.7124 19.7664L9.26252 18.9293Z" fill="#3D73FF"/>
<path d="M34.2039 17.8717H29.54V4.71519H34.2424C35.5658 4.71519 36.705 4.97857 37.66 5.50535C38.6151 6.02784 39.3496 6.77945 39.8635 7.76019C40.3817 8.74094 40.6408 9.9144 40.6408 11.2806C40.6408 12.6511 40.3817 13.8288 39.8635 14.8138C39.3496 15.7988 38.6108 16.5547 37.6472 17.0815C36.6879 17.6083 35.5401 17.8717 34.2039 17.8717ZM32.3217 15.4883H34.0883C34.9105 15.4883 35.6022 15.3427 36.1632 15.0515C36.7286 14.756 37.1525 14.2999 37.4352 13.6832C37.7221 13.0622 37.8656 12.2613 37.8656 11.2806C37.8656 10.3084 37.7221 9.51396 37.4352 8.89725C37.1525 8.28054 36.7307 7.82658 36.1697 7.53535C35.6086 7.24413 34.917 7.09852 34.0947 7.09852H32.3217V15.4883ZM45.4637 18.058C44.8341 18.058 44.2731 17.9488 43.7806 17.7303C43.2881 17.5076 42.8983 17.18 42.6114 16.7475C42.3287 16.3106 42.1874 15.7667 42.1874 15.1158C42.1874 14.5676 42.2881 14.1072 42.4893 13.7346C42.6906 13.362 42.9647 13.0622 43.3116 12.8352C43.6585 12.6082 44.0525 12.4369 44.4937 12.3213C44.9391 12.2056 45.4059 12.1243 45.8941 12.0772C46.468 12.0172 46.9305 11.9615 47.2817 11.9101C47.6329 11.8545 47.8877 11.7731 48.0462 11.666C48.2046 11.559 48.2839 11.4005 48.2839 11.1906V11.1521C48.2839 10.7452 48.1554 10.4305 47.8984 10.2078C47.6457 9.98506 47.286 9.87371 46.8192 9.87371C46.3267 9.87371 45.9348 9.98292 45.6436 10.2013C45.3523 10.4155 45.1596 10.6853 45.0654 11.0108L42.5343 10.8052C42.6628 10.2056 42.9155 9.68741 43.2923 9.25058C43.6692 8.80946 44.1553 8.47112 44.7506 8.23557C45.3502 7.99574 46.044 7.87583 46.832 7.87583C47.3802 7.87583 47.9048 7.94007 48.4059 8.06855C48.9113 8.19703 49.3588 8.39618 49.7485 8.66599C50.1425 8.9358 50.453 9.2827 50.68 9.70669C50.907 10.1264 51.0205 10.6296 51.0205 11.2163V17.8717H48.4252V16.5033H48.3481C48.1896 16.8117 47.9776 17.0837 47.7121 17.3192C47.4466 17.5505 47.1275 17.7325 46.7549 17.8653C46.3823 17.9937 45.9519 18.058 45.4637 18.058ZM46.2474 16.1693C46.65 16.1693 47.0055 16.0901 47.3138 15.9316C47.6222 15.7689 47.8641 15.5504 48.0397 15.2764C48.2153 15.0023 48.3031 14.6918 48.3031 14.3449V13.2977C48.2175 13.3534 48.0997 13.4048 47.9498 13.4519C47.8042 13.4947 47.6393 13.5354 47.4551 13.574C47.271 13.6082 47.0868 13.6404 46.9027 13.6703C46.7185 13.696 46.5515 13.7196 46.4016 13.741C46.0804 13.7881 45.7999 13.8631 45.56 13.9658C45.3202 14.0686 45.1339 14.2078 45.0012 14.3834C44.8684 14.5547 44.802 14.7689 44.802 15.0258C44.802 15.3984 44.9369 15.6832 45.2067 15.8802C45.4808 16.0729 45.8277 16.1693 46.2474 16.1693ZM61.3536 10.8181L58.8482 10.9722C58.8054 10.7581 58.7133 10.5654 58.572 10.3941C58.4307 10.2185 58.2444 10.0793 58.0131 9.9765C57.7861 9.86943 57.5142 9.8159 57.1972 9.8159C56.7733 9.8159 56.4156 9.90583 56.1244 10.0857C55.8332 10.2613 55.6876 10.4968 55.6876 10.7924C55.6876 11.0279 55.7818 11.227 55.9702 11.3898C56.1587 11.5525 56.482 11.6832 56.9403 11.7817L58.7262 12.1414C59.6855 12.3384 60.4007 12.6553 60.8718 13.0922C61.3429 13.529 61.5785 14.1029 61.5785 14.8138C61.5785 15.4605 61.3879 16.028 61.0067 16.5162C60.6298 17.0044 60.1116 17.3856 59.4521 17.6597C58.7968 17.9295 58.0409 18.0644 57.1844 18.0644C55.8782 18.0644 54.8375 17.7924 54.0623 17.2485C53.2914 16.7004 52.8396 15.9552 52.7068 15.013L55.3985 14.8716C55.4799 15.2699 55.6769 15.574 55.9895 15.7839C56.3022 15.9894 56.7026 16.0922 57.1908 16.0922C57.6705 16.0922 58.0559 16.0001 58.3472 15.816C58.6427 15.6275 58.7926 15.3856 58.7968 15.0901C58.7926 14.8417 58.6876 14.6382 58.4821 14.4798C58.2765 14.317 57.9596 14.1928 57.5313 14.1072L55.8225 13.7667C54.8589 13.574 54.1415 13.2399 53.6704 12.7645C53.2036 12.2892 52.9702 11.6832 52.9702 10.9465C52.9702 10.3127 53.1415 9.76664 53.4841 9.30839C53.831 8.85014 54.3171 8.49682 54.9424 8.24842C55.572 8.00003 56.3086 7.87583 57.1523 7.87583C58.3985 7.87583 59.3793 8.13921 60.0945 8.66599C60.814 9.19276 61.2337 9.91012 61.3536 10.8181ZM66.0384 12.1671V17.8717H63.3017V4.71519H65.9613V9.74523H66.0769C66.2996 9.16278 66.6594 8.70667 67.1562 8.3769C67.6529 8.04285 68.2761 7.87583 69.0256 7.87583C69.7108 7.87583 70.3082 8.02572 70.8179 8.32551C71.3318 8.62102 71.7301 9.04715 72.0127 9.6039C72.2997 10.1564 72.441 10.8181 72.4367 11.5889V17.8717H69.7001V12.0772C69.7044 11.469 69.5502 10.9958 69.2376 10.6574C68.9292 10.3191 68.4966 10.1499 67.9399 10.1499C67.5673 10.1499 67.2375 10.2292 66.9506 10.3876C66.6679 10.5461 66.4452 10.7774 66.2825 11.0814C66.124 11.3812 66.0426 11.7431 66.0384 12.1671ZM79.8967 8.00431V10.06H73.8067V8.00431H79.8967ZM75.2007 17.8717V7.29124C75.2007 6.57602 75.3399 5.98287 75.6183 5.51177C75.9009 5.04067 76.2864 4.68735 76.7746 4.4518C77.2628 4.21625 77.8174 4.09848 78.4384 4.09848C78.8581 4.09848 79.2414 4.1306 79.5883 4.19484C79.9395 4.25908 80.2008 4.31689 80.3721 4.36829L79.8838 6.42399C79.7768 6.38973 79.644 6.35761 79.4855 6.32763C79.3314 6.29765 79.1729 6.28266 79.0102 6.28266C78.6076 6.28266 78.3271 6.37688 78.1686 6.56532C78.0102 6.74947 77.9309 7.00858 77.9309 7.34263V17.8717H75.2007ZM84.3052 4.71519V17.8717H81.5685V4.71519H84.3052ZM90.9557 18.0644C89.9578 18.0644 89.0949 17.8524 88.3668 17.4284C87.643 17.0001 87.0841 16.4048 86.6901 15.6425C86.2961 14.8759 86.0991 13.9873 86.0991 12.9765C86.0991 11.9573 86.2961 11.0664 86.6901 10.3041C87.0841 9.53752 87.643 8.94222 88.3668 8.51823C89.0949 8.08996 89.9578 7.87583 90.9557 7.87583C91.9536 7.87583 92.8144 8.08996 93.5382 8.51823C94.2662 8.94222 94.8273 9.53752 95.2213 10.3041C95.6153 11.0664 95.8123 11.9573 95.8123 12.9765C95.8123 13.9873 95.6153 14.8759 95.2213 15.6425C94.8273 16.4048 94.2662 17.0001 93.5382 17.4284C92.8144 17.8524 91.9536 18.0644 90.9557 18.0644ZM90.9686 15.9445C91.4225 15.9445 91.8015 15.816 92.1056 15.559C92.4097 15.2978 92.6388 14.9423 92.793 14.4926C92.9515 14.0429 93.0307 13.5311 93.0307 12.9573C93.0307 12.3834 92.9515 11.8716 92.793 11.4219C92.6388 10.9722 92.4097 10.6168 92.1056 10.3555C91.8015 10.0943 91.4225 9.96365 90.9686 9.96365C90.5103 9.96365 90.1249 10.0943 89.8122 10.3555C89.5039 10.6168 89.2705 10.9722 89.112 11.4219C88.9578 11.8716 88.8807 12.3834 88.8807 12.9573C88.8807 13.5311 88.9578 14.0429 89.112 14.4926C89.2705 14.9423 89.5039 15.2978 89.8122 15.559C90.1249 15.816 90.5103 15.9445 90.9686 15.9445ZM99.2909 17.8717L96.6057 8.00431H99.3745L100.903 14.6339H100.993L102.586 8.00431H105.304L106.923 14.5954H107.006L108.509 8.00431H111.272L108.593 17.8717H105.696L104 11.666H103.878L102.182 17.8717H99.2909ZM119.578 4.71519L122.231 9.19918H122.334L125 4.71519H128.141L124.126 11.2934L128.231 17.8717H125.032L122.334 13.3813H122.231L119.533 17.8717H116.347L120.465 11.2934L116.424 4.71519H119.578Z" fill="#1F2D54"/>
</g>
<defs>
<clipPath id="clip0_4956_10153">
<rect width="130" height="24" fill="white"/>
</clipPath>
</defs>
</svg>
