<svg width="612" height="227" viewBox="0 0 612 227" fill="none" xmlns="http://www.w3.org/2000/svg">
<path d="M117.302 186.207C117.302 184.55 115.959 183.207 114.302 183.207H20.0761C18.5523 183.207 17.2705 182.064 17.0959 180.551L13.037 145.374C12.9504 144.623 13.1501 143.868 13.5962 143.258L105.303 17.935C105.868 17.163 106.768 16.7066 107.724 16.7066H165.602C167.259 16.7066 168.602 18.0498 168.602 19.7066V137.607C168.602 139.264 169.945 140.607 171.602 140.607H191.702C193.359 140.607 194.702 141.95 194.702 143.607V180.207C194.702 181.863 193.359 183.207 191.702 183.207H171.602C169.946 183.207 168.602 184.55 168.602 186.207V219.507C168.602 221.164 167.259 222.507 165.602 222.507H120.302C118.646 222.507 117.302 221.164 117.302 219.507V186.207ZM114.302 140.607C115.959 140.607 117.302 139.264 117.302 137.607V79.06C117.302 76.1518 113.579 74.9448 111.873 77.2998L69.4515 135.846C68.0143 137.83 69.4314 140.607 71.8808 140.607H114.302Z" fill="#5178FF"/>
<path d="M312.586 226.107C294.386 226.107 278.086 221.607 263.686 212.607C249.286 203.407 237.986 190.707 229.786 174.507C221.786 158.307 217.786 139.907 217.786 119.307C217.786 98.7066 221.786 80.4067 229.786 64.4067C237.986 48.2066 249.286 35.6066 263.686 26.6066C278.086 17.4066 294.386 12.8066 312.586 12.8066C330.986 12.8066 347.386 17.4066 361.786 26.6066C376.186 35.6066 387.386 48.2066 395.386 64.4067C403.586 80.4067 407.686 98.7066 407.686 119.307C407.686 139.907 403.586 158.307 395.386 174.507C387.386 190.707 376.186 203.407 361.786 212.607C347.386 221.607 330.986 226.107 312.586 226.107ZM312.586 179.607C320.786 179.607 328.086 177.007 334.486 171.807C340.886 166.607 345.886 159.507 349.486 150.507C353.086 141.307 354.886 130.907 354.886 119.307C354.886 107.707 353.086 97.4067 349.486 88.4067C345.886 79.2066 340.886 72.1067 334.486 67.1067C328.086 61.9067 320.786 59.3066 312.586 59.3066C304.586 59.3066 297.386 61.9067 290.986 67.1067C284.586 72.1067 279.586 79.2066 275.986 88.4067C272.386 97.4067 270.586 107.707 270.586 119.307C270.586 130.907 272.386 141.307 275.986 150.507C279.586 159.507 284.586 166.607 290.986 171.807C297.386 177.007 304.586 179.607 312.586 179.607Z" fill="#5178FF"/>
<path d="M534.197 186.207C534.197 184.55 532.854 183.207 531.197 183.207H436.971C435.447 183.207 434.165 182.064 433.99 180.551L429.932 145.374C429.845 144.623 430.045 143.868 430.491 143.258L522.198 17.935C522.763 17.163 523.662 16.7066 524.619 16.7066H582.497C584.154 16.7066 585.497 18.0498 585.497 19.7066V137.607C585.497 139.264 586.84 140.607 588.497 140.607H608.597C610.254 140.607 611.597 141.95 611.597 143.607V180.207C611.597 181.863 610.254 183.207 608.597 183.207H588.497C586.84 183.207 585.497 184.55 585.497 186.207V219.507C585.497 221.164 584.154 222.507 582.497 222.507H537.197C535.54 222.507 534.197 221.164 534.197 219.507V186.207ZM531.197 140.607C532.854 140.607 534.197 139.264 534.197 137.607V79.06C534.197 76.1518 530.474 74.9448 528.768 77.2998L486.346 135.846C484.909 137.83 486.326 140.607 488.775 140.607H531.197Z" fill="#5178FF"/>
<path d="M218.389 164.449L218.394 164.458C226.669 180.808 238.087 193.647 252.648 202.949L252.656 202.955C267.226 212.061 283.713 216.607 302.086 216.607C320.657 216.607 337.244 212.062 351.816 202.955L351.824 202.949C366.386 193.646 377.705 180.805 385.781 164.453C394.059 148.097 398.186 129.54 398.186 108.807C398.186 88.0745 394.059 69.6168 385.78 53.4581C377.704 37.1071 366.384 24.3649 351.82 15.2613C337.248 5.95243 320.66 1.30664 302.086 1.30664C283.71 1.30664 267.222 5.95357 252.652 15.2613C238.088 24.3645 226.669 37.1057 218.394 53.455L218.392 53.4594C210.312 69.618 206.286 88.075 206.286 108.807C206.286 129.539 210.312 148.094 218.389 164.449ZM2.28922 132.168L2.28922 132.168C1.69443 132.981 1.42817 133.988 1.54362 134.989L5.60246 170.165C5.83535 172.184 7.54435 173.707 9.5761 173.707H103.802C104.907 173.707 105.802 174.602 105.802 175.707V209.007C105.802 211.216 107.593 213.007 109.802 213.007H155.102C157.312 213.007 159.102 211.216 159.102 209.007V175.707C159.102 174.602 159.998 173.707 161.102 173.707H181.202C183.412 173.707 185.202 171.916 185.202 169.707V133.107C185.202 130.898 183.411 129.107 181.202 129.107H161.102C159.998 129.107 159.102 128.211 159.102 127.107V9.20664C159.102 6.99751 157.312 5.20664 155.102 5.20664H97.2245C95.9489 5.20664 94.7498 5.81506 93.9965 6.84448L2.28922 132.168ZM338.055 78.2711L338.057 78.278C341.602 87.1392 343.386 97.3094 343.386 108.807C343.386 120.302 341.602 130.575 338.056 139.64C334.508 148.508 329.601 155.456 323.355 160.531C317.133 165.587 310.055 168.107 302.086 168.107C294.323 168.107 287.344 165.591 281.117 160.531C274.871 155.456 269.964 148.507 266.416 139.64C262.869 130.575 261.086 120.302 261.086 108.807C261.086 97.3094 262.87 87.1392 266.414 78.2781L266.417 78.2711C269.966 69.2019 274.871 62.2627 281.102 57.3947L281.109 57.3888L281.117 57.3828C287.344 52.3228 294.323 49.8066 302.086 49.8066C310.055 49.8066 317.133 52.3267 323.355 57.3828L323.363 57.3888L323.37 57.3947C329.601 62.2627 334.506 69.2019 338.055 78.2711ZM419.184 132.168L419.991 132.758L419.184 132.168C418.589 132.981 418.323 133.988 418.438 134.989L422.497 170.165C422.73 172.184 424.439 173.707 426.471 173.707H520.697C521.801 173.707 522.697 174.602 522.697 175.707V209.007C522.697 211.216 524.488 213.007 526.697 213.007H571.997C574.206 213.007 575.997 211.216 575.997 209.007V175.707C575.997 174.602 576.892 173.707 577.997 173.707H598.097C600.306 173.707 602.097 171.916 602.097 169.707V133.107C602.097 130.898 600.306 129.107 598.097 129.107H577.997C576.892 129.107 575.997 128.211 575.997 127.107V9.20664C575.997 6.99751 574.206 5.20664 571.997 5.20664H514.119C512.843 5.20664 511.644 5.81506 510.891 6.84449L419.184 132.168ZM105.802 127.107C105.802 128.211 104.907 129.107 103.802 129.107H61.3808C59.7479 129.107 58.8031 127.256 59.7613 125.933L102.183 67.3865C103.32 65.8165 105.802 66.6212 105.802 68.56V127.107ZM522.697 127.107C522.697 128.211 521.801 129.107 520.697 129.107H478.275C476.642 129.107 475.698 127.255 476.656 125.933L519.077 67.3865C520.215 65.8165 522.697 66.6212 522.697 68.56V127.107Z" stroke="#0C1830" stroke-width="2"/>
</svg>
