<svg width="178" height="26" viewBox="0 0 178 26" fill="none" xmlns="http://www.w3.org/2000/svg">
<g clip-path="url(#clip0_1377_22908)">
<path d="M12.1732 22.184C12.6817 21.8771 13.3183 21.8771 13.8268 22.184L19.0566 25.3405C20.2684 26.0719 21.7632 24.9855 21.4416 23.6072L20.0536 17.6586C19.9186 17.0801 20.1152 16.4746 20.5641 16.0857L25.1869 12.0811C26.2567 11.1543 25.6848 9.39706 24.2745 9.27745L18.1915 8.76155C17.6002 8.71139 17.0852 8.33806 16.8536 7.79166L14.4732 2.17546C13.9218 0.874657 12.0782 0.874661 11.5269 2.17547L9.14645 7.79167C8.91486 8.33807 8.39986 8.71139 7.80853 8.76155L1.7256 9.27745C0.315289 9.39706 -0.256595 11.1543 0.813196 12.0811L5.43596 16.0857C5.88489 16.4746 6.08144 17.0801 5.94648 17.6586L4.55848 23.6072C4.23687 24.9855 5.73168 26.0719 6.94341 25.3405L12.1732 22.184Z" fill="#4A3AFF"/>
</g>
<defs>
<clipPath id="clip0_1377_22908">
<rect width="26" height="26" fill="white"/>
</clipPath>
<clipPath id="clip1_1377_22908">
<rect width="26" height="26" fill="white" transform="translate(38)"/>
</clipPath>
<clipPath id="clip2_1377_22908">
<rect width="26" height="26" fill="white" transform="translate(76)"/>
</clipPath>
<clipPath id="clip3_1377_22908">
<rect width="26" height="26" fill="white" transform="translate(114)"/>
</clipPath>
<clipPath id="clip4_1377_22908">
<rect width="26" height="26" fill="white" transform="translate(152)"/>
</clipPath>
</defs>
</svg>
