<svg xmlns="http://www.w3.org/2000/svg" xmlns:xlink="http://www.w3.org/1999/xlink" width="576" zoomAndPan="magnify" viewBox="0 0 432 147.750002" height="197" preserveAspectRatio="xMidYMid meet" version="1.0"><defs><g/></defs><g fill="#4a3aff" fill-opacity="1"><g transform="translate(28.52717, 94.606111)"><g><path d="M 4.578125 -62.953125 L 24.109375 -62.953125 C 30.015625 -62.953125 34.722656 -61.691406 38.234375 -59.171875 C 41.742188 -56.660156 43.5 -52.582031 43.5 -46.9375 C 43.5 -40.625 40.878906 -36.117188 35.640625 -33.421875 C 44.585938 -31.847656 49.0625 -26.554688 49.0625 -17.546875 C 49.0625 -12.253906 47.226562 -8.003906 43.5625 -4.796875 C 39.90625 -1.597656 34.875 0 28.46875 0 L 4.578125 0 Z M 18.921875 -38.3125 L 20.0625 -38.3125 C 23.269531 -38.3125 25.660156 -38.867188 27.234375 -39.984375 C 28.816406 -41.109375 29.609375 -42.941406 29.609375 -45.484375 C 29.609375 -49.753906 26.425781 -51.890625 20.0625 -51.890625 L 18.921875 -51.890625 Z M 18.921875 -11.0625 L 23.421875 -11.0625 C 30.441406 -11.0625 33.953125 -13.40625 33.953125 -18.09375 C 33.953125 -20.882812 33.070312 -22.890625 31.3125 -24.109375 C 29.5625 -25.335938 26.929688 -25.953125 23.421875 -25.953125 L 18.921875 -25.953125 Z M 18.921875 -11.0625 "/></g></g></g><g fill="#4a3aff" fill-opacity="1"><g transform="translate(75.53508, 94.606111)"><g><path d="M 5.875 -60.96875 C 7.445312 -62.550781 9.328125 -63.34375 11.515625 -63.34375 C 13.703125 -63.34375 15.582031 -62.550781 17.15625 -60.96875 C 18.738281 -59.394531 19.53125 -57.515625 19.53125 -55.328125 C 19.53125 -53.140625 18.738281 -51.253906 17.15625 -49.671875 C 15.582031 -48.097656 13.703125 -47.3125 11.515625 -47.3125 C 9.328125 -47.3125 7.445312 -48.097656 5.875 -49.671875 C 4.300781 -51.253906 3.515625 -53.140625 3.515625 -55.328125 C 3.515625 -57.515625 4.300781 -59.394531 5.875 -60.96875 Z M 4.578125 -39.140625 L 4.578125 0 L 18.09375 0 L 18.09375 -39.140625 Z M 4.578125 -39.140625 "/></g></g></g><g fill="#4a3aff" fill-opacity="1"><g transform="translate(94.76534, 94.606111)"><g><path d="M 44.859375 -34.265625 C 48.523438 -30.242188 50.359375 -25.332031 50.359375 -19.53125 C 50.359375 -13.738281 48.523438 -8.84375 44.859375 -4.84375 C 41.203125 -0.851562 36.550781 1.140625 30.90625 1.140625 C 25.71875 1.140625 21.445312 -0.710938 18.09375 -4.421875 L 17.9375 -4.421875 L 17.9375 0 L 4.578125 0 L 4.578125 -65.625 L 18.09375 -65.625 L 18.09375 -35.40625 C 21.445312 -38.664062 25.71875 -40.296875 30.90625 -40.296875 C 36.550781 -40.296875 41.203125 -38.285156 44.859375 -34.265625 Z M 33.5 -12.921875 C 35.175781 -14.628906 36.015625 -16.832031 36.015625 -19.53125 C 36.015625 -22.226562 35.132812 -24.441406 33.375 -26.171875 C 31.625 -27.898438 29.453125 -28.765625 26.859375 -28.765625 C 24.316406 -28.765625 22.164062 -27.898438 20.40625 -26.171875 C 18.65625 -24.441406 17.78125 -22.226562 17.78125 -19.53125 C 17.78125 -16.882812 18.628906 -14.695312 20.328125 -12.96875 C 22.035156 -11.238281 24.210938 -10.375 26.859375 -10.375 C 29.609375 -10.375 31.820312 -11.222656 33.5 -12.921875 Z M 33.5 -12.921875 "/></g></g></g><g fill="#4a3aff" fill-opacity="1"><g transform="translate(143.070566, 94.606111)"><g><path d="M 4.578125 0 L 4.578125 -65.625 L 18.09375 -65.625 L 18.09375 0 Z M 4.578125 0 "/></g></g></g><g fill="#4a3aff" fill-opacity="1"><g transform="translate(161.919263, 94.606111)"><g><path d="M 5.875 -60.96875 C 7.445312 -62.550781 9.328125 -63.34375 11.515625 -63.34375 C 13.703125 -63.34375 15.582031 -62.550781 17.15625 -60.96875 C 18.738281 -59.394531 19.53125 -57.515625 19.53125 -55.328125 C 19.53125 -53.140625 18.738281 -51.253906 17.15625 -49.671875 C 15.582031 -48.097656 13.703125 -47.3125 11.515625 -47.3125 C 9.328125 -47.3125 7.445312 -48.097656 5.875 -49.671875 C 4.300781 -51.253906 3.515625 -53.140625 3.515625 -55.328125 C 3.515625 -57.515625 4.300781 -59.394531 5.875 -60.96875 Z M 4.578125 -39.140625 L 4.578125 0 L 18.09375 0 L 18.09375 -39.140625 Z M 4.578125 -39.140625 "/></g></g></g><g fill="#4a3aff" fill-opacity="1"><g transform="translate(181.149523, 94.606111)"><g><path d="M 8.265625 -4.65625 C 3.921875 -8.519531 1.75 -13.476562 1.75 -19.53125 C 1.75 -25.59375 4.015625 -30.566406 8.546875 -34.453125 C 13.078125 -38.347656 18.671875 -40.296875 25.328125 -40.296875 C 31.898438 -40.296875 37.4375 -38.335938 41.9375 -34.421875 C 46.4375 -30.503906 48.6875 -25.539062 48.6875 -19.53125 C 48.6875 -13.53125 46.484375 -8.582031 42.078125 -4.6875 C 37.679688 -0.800781 32.097656 1.140625 25.328125 1.140625 C 18.304688 1.140625 12.617188 -0.789062 8.265625 -4.65625 Z M 18.734375 -26.171875 C 16.984375 -24.441406 16.109375 -22.226562 16.109375 -19.53125 C 16.109375 -16.832031 16.945312 -14.628906 18.625 -12.921875 C 20.300781 -11.222656 22.515625 -10.375 25.265625 -10.375 C 27.910156 -10.375 30.082031 -11.238281 31.78125 -12.96875 C 33.488281 -14.695312 34.34375 -16.882812 34.34375 -19.53125 C 34.34375 -22.226562 33.460938 -24.441406 31.703125 -26.171875 C 29.953125 -27.898438 27.804688 -28.765625 25.265625 -28.765625 C 22.671875 -28.765625 20.492188 -27.898438 18.734375 -26.171875 Z M 18.734375 -26.171875 "/></g></g></g><path fill="#4a3aff" d="M 227.785156 99.097656 L 399.417969 99.097656 L 399.417969 106.585938 L 227.785156 106.585938 Z M 227.785156 99.097656 " fill-opacity="1" fill-rule="nonzero"/><g fill="#4a3aff" fill-opacity="1"><g transform="translate(227.783776, 94.606111)"><g><path d="M 6.875 -39.140625 L 6.875 -53.71875 L 20.375 -53.71875 L 20.375 -39.140625 L 28.625 -39.140625 L 28.625 -28.84375 L 20.375 -28.84375 L 20.375 -16.40625 C 20.375 -12.789062 21.390625 -10.984375 23.421875 -10.984375 C 23.929688 -10.984375 24.46875 -11.082031 25.03125 -11.28125 C 25.59375 -11.488281 26.023438 -11.695312 26.328125 -11.90625 L 26.78125 -12.203125 L 30.140625 -1.296875 C 27.242188 0.328125 23.9375 1.140625 20.21875 1.140625 C 17.675781 1.140625 15.488281 0.695312 13.65625 -0.1875 C 11.820312 -1.082031 10.4375 -2.28125 9.5 -3.78125 C 8.5625 -5.28125 7.890625 -6.851562 7.484375 -8.5 C 7.078125 -10.15625 6.875 -11.925781 6.875 -13.8125 L 6.875 -28.84375 L 1.21875 -28.84375 L 1.21875 -39.140625 Z M 6.875 -39.140625 "/></g></g></g><g fill="#4a3aff" fill-opacity="1"><g transform="translate(254.111075, 94.606111)"><g><path d="M 44.1875 -17.703125 L 15.796875 -17.703125 C 15.796875 -14.953125 16.6875 -12.914062 18.46875 -11.59375 C 20.25 -10.269531 22.179688 -9.609375 24.265625 -9.609375 C 26.453125 -9.609375 28.179688 -9.898438 29.453125 -10.484375 C 30.722656 -11.078125 32.175781 -12.238281 33.8125 -13.96875 L 43.578125 -9.078125 C 39.503906 -2.265625 32.738281 1.140625 23.28125 1.140625 C 17.375 1.140625 12.304688 -0.878906 8.078125 -4.921875 C 3.859375 -8.960938 1.75 -13.832031 1.75 -19.53125 C 1.75 -25.226562 3.859375 -30.113281 8.078125 -34.1875 C 12.304688 -38.257812 17.375 -40.296875 23.28125 -40.296875 C 29.476562 -40.296875 34.523438 -38.5 38.421875 -34.90625 C 42.316406 -31.320312 44.265625 -26.195312 44.265625 -19.53125 C 44.265625 -18.613281 44.238281 -18.003906 44.1875 -17.703125 Z M 16.171875 -25.1875 L 31.0625 -25.1875 C 30.75 -27.21875 29.941406 -28.78125 28.640625 -29.875 C 27.347656 -30.96875 25.6875 -31.515625 23.65625 -31.515625 C 21.414062 -31.515625 19.632812 -30.925781 18.3125 -29.75 C 16.988281 -28.582031 16.273438 -27.0625 16.171875 -25.1875 Z M 16.171875 -25.1875 "/></g></g></g><g fill="#4a3aff" fill-opacity="1"><g transform="translate(296.31132, 94.606111)"><g><path d="M 25.40625 -29.234375 C 22.863281 -29.234375 20.675781 -28.289062 18.84375 -26.40625 C 17.019531 -24.519531 16.109375 -22.253906 16.109375 -19.609375 C 16.109375 -16.910156 17.019531 -14.617188 18.84375 -12.734375 C 20.675781 -10.859375 22.863281 -9.921875 25.40625 -9.921875 C 26.632812 -9.921875 27.796875 -10.070312 28.890625 -10.375 C 29.984375 -10.6875 30.78125 -10.992188 31.28125 -11.296875 L 31.96875 -11.75 L 36.546875 -2.359375 C 36.191406 -2.109375 35.695312 -1.789062 35.0625 -1.40625 C 34.425781 -1.03125 32.972656 -0.515625 30.703125 0.140625 C 28.441406 0.804688 26.015625 1.140625 23.421875 1.140625 C 17.671875 1.140625 12.617188 -0.878906 8.265625 -4.921875 C 3.921875 -8.960938 1.75 -13.804688 1.75 -19.453125 C 1.75 -25.148438 3.921875 -30.046875 8.265625 -34.140625 C 12.617188 -38.242188 17.671875 -40.296875 23.421875 -40.296875 C 26.015625 -40.296875 28.40625 -39.988281 30.59375 -39.375 C 32.78125 -38.769531 34.332031 -38.160156 35.25 -37.546875 L 36.546875 -36.625 L 31.96875 -27.390625 C 30.289062 -28.617188 28.101562 -29.234375 25.40625 -29.234375 Z M 25.40625 -29.234375 "/></g></g></g><g fill="#4a3aff" fill-opacity="1"><g transform="translate(329.964598, 94.606111)"><g><path d="M 4.578125 0 L 4.578125 -65.625 L 18.09375 -65.625 L 18.09375 -35.03125 L 18.234375 -35.03125 C 21.742188 -38.539062 25.484375 -40.296875 29.453125 -40.296875 C 31.390625 -40.296875 33.3125 -40.039062 35.21875 -39.53125 C 37.125 -39.019531 38.953125 -38.226562 40.703125 -37.15625 C 42.460938 -36.09375 43.890625 -34.582031 44.984375 -32.625 C 46.078125 -30.664062 46.625 -28.390625 46.625 -25.796875 L 46.625 0 L 33.125 0 L 33.125 -22.125 C 33.125 -24.164062 32.472656 -25.945312 31.171875 -27.46875 C 29.878906 -29 28.1875 -29.765625 26.09375 -29.765625 C 24.0625 -29.765625 22.21875 -28.972656 20.5625 -27.390625 C 18.914062 -25.816406 18.09375 -24.0625 18.09375 -22.125 L 18.09375 0 Z M 4.578125 0 "/></g></g></g><g fill="#4a3aff" fill-opacity="1"><g transform="translate(376.590944, 94.606111)"><g><path d="M 13.28125 -16.328125 C 15.71875 -16.328125 17.785156 -15.472656 19.484375 -13.765625 C 21.191406 -12.066406 22.046875 -10 22.046875 -7.5625 C 22.046875 -5.164062 21.191406 -3.113281 19.484375 -1.40625 C 17.785156 0.289062 15.71875 1.140625 13.28125 1.140625 C 10.882812 1.140625 8.832031 0.289062 7.125 -1.40625 C 5.425781 -3.113281 4.578125 -5.164062 4.578125 -7.5625 C 4.578125 -10 5.425781 -12.066406 7.125 -13.765625 C 8.832031 -15.472656 10.882812 -16.328125 13.28125 -16.328125 Z M 13.28125 -16.328125 "/></g></g></g><g fill="#000000" fill-opacity="1"><g transform="translate(28.52717, 94.69975)"><g><path d="M 4.578125 -62.953125 L 24.109375 -62.953125 C 30.015625 -62.953125 34.722656 -61.691406 38.234375 -59.171875 C 41.742188 -56.660156 43.5 -52.582031 43.5 -46.9375 C 43.5 -40.625 40.878906 -36.117188 35.640625 -33.421875 C 44.585938 -31.847656 49.0625 -26.554688 49.0625 -17.546875 C 49.0625 -12.253906 47.226562 -8.003906 43.5625 -4.796875 C 39.90625 -1.597656 34.875 0 28.46875 0 L 4.578125 0 Z M 18.921875 -38.3125 L 20.0625 -38.3125 C 23.269531 -38.3125 25.660156 -38.867188 27.234375 -39.984375 C 28.816406 -41.109375 29.609375 -42.941406 29.609375 -45.484375 C 29.609375 -49.753906 26.425781 -51.890625 20.0625 -51.890625 L 18.921875 -51.890625 Z M 18.921875 -11.0625 L 23.421875 -11.0625 C 30.441406 -11.0625 33.953125 -13.40625 33.953125 -18.09375 C 33.953125 -20.882812 33.070312 -22.890625 31.3125 -24.109375 C 29.5625 -25.335938 26.929688 -25.953125 23.421875 -25.953125 L 18.921875 -25.953125 Z M 18.921875 -11.0625 "/></g></g></g><g fill="#000000" fill-opacity="1"><g transform="translate(75.53508, 94.69975)"><g><path d="M 5.875 -60.96875 C 7.445312 -62.550781 9.328125 -63.34375 11.515625 -63.34375 C 13.703125 -63.34375 15.582031 -62.550781 17.15625 -60.96875 C 18.738281 -59.394531 19.53125 -57.515625 19.53125 -55.328125 C 19.53125 -53.140625 18.738281 -51.253906 17.15625 -49.671875 C 15.582031 -48.097656 13.703125 -47.3125 11.515625 -47.3125 C 9.328125 -47.3125 7.445312 -48.097656 5.875 -49.671875 C 4.300781 -51.253906 3.515625 -53.140625 3.515625 -55.328125 C 3.515625 -57.515625 4.300781 -59.394531 5.875 -60.96875 Z M 4.578125 -39.140625 L 4.578125 0 L 18.09375 0 L 18.09375 -39.140625 Z M 4.578125 -39.140625 "/></g></g></g><g fill="#000000" fill-opacity="1"><g transform="translate(94.76534, 94.69975)"><g><path d="M 44.859375 -34.265625 C 48.523438 -30.242188 50.359375 -25.332031 50.359375 -19.53125 C 50.359375 -13.738281 48.523438 -8.84375 44.859375 -4.84375 C 41.203125 -0.851562 36.550781 1.140625 30.90625 1.140625 C 25.71875 1.140625 21.445312 -0.710938 18.09375 -4.421875 L 17.9375 -4.421875 L 17.9375 0 L 4.578125 0 L 4.578125 -65.625 L 18.09375 -65.625 L 18.09375 -35.40625 C 21.445312 -38.664062 25.71875 -40.296875 30.90625 -40.296875 C 36.550781 -40.296875 41.203125 -38.285156 44.859375 -34.265625 Z M 33.5 -12.921875 C 35.175781 -14.628906 36.015625 -16.832031 36.015625 -19.53125 C 36.015625 -22.226562 35.132812 -24.441406 33.375 -26.171875 C 31.625 -27.898438 29.453125 -28.765625 26.859375 -28.765625 C 24.316406 -28.765625 22.164062 -27.898438 20.40625 -26.171875 C 18.65625 -24.441406 17.78125 -22.226562 17.78125 -19.53125 C 17.78125 -16.882812 18.628906 -14.695312 20.328125 -12.96875 C 22.035156 -11.238281 24.210938 -10.375 26.859375 -10.375 C 29.609375 -10.375 31.820312 -11.222656 33.5 -12.921875 Z M 33.5 -12.921875 "/></g></g></g><g fill="#000000" fill-opacity="1"><g transform="translate(143.070566, 94.69975)"><g><path d="M 4.578125 0 L 4.578125 -65.625 L 18.09375 -65.625 L 18.09375 0 Z M 4.578125 0 "/></g></g></g><g fill="#000000" fill-opacity="1"><g transform="translate(161.919263, 94.69975)"><g><path d="M 5.875 -60.96875 C 7.445312 -62.550781 9.328125 -63.34375 11.515625 -63.34375 C 13.703125 -63.34375 15.582031 -62.550781 17.15625 -60.96875 C 18.738281 -59.394531 19.53125 -57.515625 19.53125 -55.328125 C 19.53125 -53.140625 18.738281 -51.253906 17.15625 -49.671875 C 15.582031 -48.097656 13.703125 -47.3125 11.515625 -47.3125 C 9.328125 -47.3125 7.445312 -48.097656 5.875 -49.671875 C 4.300781 -51.253906 3.515625 -53.140625 3.515625 -55.328125 C 3.515625 -57.515625 4.300781 -59.394531 5.875 -60.96875 Z M 4.578125 -39.140625 L 4.578125 0 L 18.09375 0 L 18.09375 -39.140625 Z M 4.578125 -39.140625 "/></g></g></g><g fill="#000000" fill-opacity="1"><g transform="translate(181.149523, 94.69975)"><g><path d="M 8.265625 -4.65625 C 3.921875 -8.519531 1.75 -13.476562 1.75 -19.53125 C 1.75 -25.59375 4.015625 -30.566406 8.546875 -34.453125 C 13.078125 -38.347656 18.671875 -40.296875 25.328125 -40.296875 C 31.898438 -40.296875 37.4375 -38.335938 41.9375 -34.421875 C 46.4375 -30.503906 48.6875 -25.539062 48.6875 -19.53125 C 48.6875 -13.53125 46.484375 -8.582031 42.078125 -4.6875 C 37.679688 -0.800781 32.097656 1.140625 25.328125 1.140625 C 18.304688 1.140625 12.617188 -0.789062 8.265625 -4.65625 Z M 18.734375 -26.171875 C 16.984375 -24.441406 16.109375 -22.226562 16.109375 -19.53125 C 16.109375 -16.832031 16.945312 -14.628906 18.625 -12.921875 C 20.300781 -11.222656 22.515625 -10.375 25.265625 -10.375 C 27.910156 -10.375 30.082031 -11.238281 31.78125 -12.96875 C 33.488281 -14.695312 34.34375 -16.882812 34.34375 -19.53125 C 34.34375 -22.226562 33.460938 -24.441406 31.703125 -26.171875 C 29.953125 -27.898438 27.804688 -28.765625 25.265625 -28.765625 C 22.671875 -28.765625 20.492188 -27.898438 18.734375 -26.171875 Z M 18.734375 -26.171875 "/></g></g></g><g fill="#000000" fill-opacity="1"><g transform="translate(227.775869, 94.69975)"><g><path d="M 6.875 -39.140625 L 6.875 -53.71875 L 20.375 -53.71875 L 20.375 -39.140625 L 28.625 -39.140625 L 28.625 -28.84375 L 20.375 -28.84375 L 20.375 -16.40625 C 20.375 -12.789062 21.390625 -10.984375 23.421875 -10.984375 C 23.929688 -10.984375 24.46875 -11.082031 25.03125 -11.28125 C 25.59375 -11.488281 26.023438 -11.695312 26.328125 -11.90625 L 26.78125 -12.203125 L 30.140625 -1.296875 C 27.242188 0.328125 23.9375 1.140625 20.21875 1.140625 C 17.675781 1.140625 15.488281 0.695312 13.65625 -0.1875 C 11.820312 -1.082031 10.4375 -2.28125 9.5 -3.78125 C 8.5625 -5.28125 7.890625 -6.851562 7.484375 -8.5 C 7.078125 -10.15625 6.875 -11.925781 6.875 -13.8125 L 6.875 -28.84375 L 1.21875 -28.84375 L 1.21875 -39.140625 Z M 6.875 -39.140625 "/></g></g></g><g fill="#000000" fill-opacity="1"><g transform="translate(254.10318, 94.69975)"><g><path d="M 44.1875 -17.703125 L 15.796875 -17.703125 C 15.796875 -14.953125 16.6875 -12.914062 18.46875 -11.59375 C 20.25 -10.269531 22.179688 -9.609375 24.265625 -9.609375 C 26.453125 -9.609375 28.179688 -9.898438 29.453125 -10.484375 C 30.722656 -11.078125 32.175781 -12.238281 33.8125 -13.96875 L 43.578125 -9.078125 C 39.503906 -2.265625 32.738281 1.140625 23.28125 1.140625 C 17.375 1.140625 12.304688 -0.878906 8.078125 -4.921875 C 3.859375 -8.960938 1.75 -13.832031 1.75 -19.53125 C 1.75 -25.226562 3.859375 -30.113281 8.078125 -34.1875 C 12.304688 -38.257812 17.375 -40.296875 23.28125 -40.296875 C 29.476562 -40.296875 34.523438 -38.5 38.421875 -34.90625 C 42.316406 -31.320312 44.265625 -26.195312 44.265625 -19.53125 C 44.265625 -18.613281 44.238281 -18.003906 44.1875 -17.703125 Z M 16.171875 -25.1875 L 31.0625 -25.1875 C 30.75 -27.21875 29.941406 -28.78125 28.640625 -29.875 C 27.347656 -30.96875 25.6875 -31.515625 23.65625 -31.515625 C 21.414062 -31.515625 19.632812 -30.925781 18.3125 -29.75 C 16.988281 -28.582031 16.273438 -27.0625 16.171875 -25.1875 Z M 16.171875 -25.1875 "/></g></g></g><g fill="#000000" fill-opacity="1"><g transform="translate(296.303414, 94.69975)"><g><path d="M 25.40625 -29.234375 C 22.863281 -29.234375 20.675781 -28.289062 18.84375 -26.40625 C 17.019531 -24.519531 16.109375 -22.253906 16.109375 -19.609375 C 16.109375 -16.910156 17.019531 -14.617188 18.84375 -12.734375 C 20.675781 -10.859375 22.863281 -9.921875 25.40625 -9.921875 C 26.632812 -9.921875 27.796875 -10.070312 28.890625 -10.375 C 29.984375 -10.6875 30.78125 -10.992188 31.28125 -11.296875 L 31.96875 -11.75 L 36.546875 -2.359375 C 36.191406 -2.109375 35.695312 -1.789062 35.0625 -1.40625 C 34.425781 -1.03125 32.972656 -0.515625 30.703125 0.140625 C 28.441406 0.804688 26.015625 1.140625 23.421875 1.140625 C 17.671875 1.140625 12.617188 -0.878906 8.265625 -4.921875 C 3.921875 -8.960938 1.75 -13.804688 1.75 -19.453125 C 1.75 -25.148438 3.921875 -30.046875 8.265625 -34.140625 C 12.617188 -38.242188 17.671875 -40.296875 23.421875 -40.296875 C 26.015625 -40.296875 28.40625 -39.988281 30.59375 -39.375 C 32.78125 -38.769531 34.332031 -38.160156 35.25 -37.546875 L 36.546875 -36.625 L 31.96875 -27.390625 C 30.289062 -28.617188 28.101562 -29.234375 25.40625 -29.234375 Z M 25.40625 -29.234375 "/></g></g></g><g fill="#000000" fill-opacity="1"><g transform="translate(329.956693, 94.69975)"><g><path d="M 4.578125 0 L 4.578125 -65.625 L 18.09375 -65.625 L 18.09375 -35.03125 L 18.234375 -35.03125 C 21.742188 -38.539062 25.484375 -40.296875 29.453125 -40.296875 C 31.390625 -40.296875 33.3125 -40.039062 35.21875 -39.53125 C 37.125 -39.019531 38.953125 -38.226562 40.703125 -37.15625 C 42.460938 -36.09375 43.890625 -34.582031 44.984375 -32.625 C 46.078125 -30.664062 46.625 -28.390625 46.625 -25.796875 L 46.625 0 L 33.125 0 L 33.125 -22.125 C 33.125 -24.164062 32.472656 -25.945312 31.171875 -27.46875 C 29.878906 -29 28.1875 -29.765625 26.09375 -29.765625 C 24.0625 -29.765625 22.21875 -28.972656 20.5625 -27.390625 C 18.914062 -25.816406 18.09375 -24.0625 18.09375 -22.125 L 18.09375 0 Z M 4.578125 0 "/></g></g></g><g fill="#4a3aff" fill-opacity="1"><g transform="translate(376.594487, 94.69975)"><g><path d="M 13.28125 -16.328125 C 15.71875 -16.328125 17.785156 -15.472656 19.484375 -13.765625 C 21.191406 -12.066406 22.046875 -10 22.046875 -7.5625 C 22.046875 -5.164062 21.191406 -3.113281 19.484375 -1.40625 C 17.785156 0.289062 15.71875 1.140625 13.28125 1.140625 C 10.882812 1.140625 8.832031 0.289062 7.125 -1.40625 C 5.425781 -3.113281 4.578125 -5.164062 4.578125 -7.5625 C 4.578125 -10 5.425781 -12.066406 7.125 -13.765625 C 8.832031 -15.472656 10.882812 -16.328125 13.28125 -16.328125 Z M 13.28125 -16.328125 "/></g></g></g></svg>