<svg width="321" height="321" viewBox="0 0 321 321" fill="none" xmlns="http://www.w3.org/2000/svg">
<path d="M160.004 320.007C248.371 320.007 320.007 248.371 320.007 160.004C320.007 71.6361 248.371 0 160.004 0C71.6361 0 0 71.6361 0 160.004C0 248.371 71.6361 320.007 160.004 320.007Z" fill="#DDD9FF"/>
<path d="M147.34 204.334C144.098 204.334 140.856 203.093 138.386 200.623L100.39 162.627C95.4377 157.675 95.4377 149.671 100.39 144.719C105.342 139.766 113.347 139.766 118.299 144.719L147.34 173.76L201.712 119.388C206.665 114.436 214.669 114.436 219.621 119.388C224.573 124.34 224.573 132.345 219.621 137.297L156.295 200.623C153.825 203.093 150.583 204.334 147.34 204.334Z" fill="#4A3AFF"/>
</svg>
